<?xml version="1.0" encoding="utf-8"?>
<!-- Generator: Adobe Illustrator 19.2.0, SVG Export Plug-In . SVG Version: 6.00 Build 0)  -->
<svg version="1.1" id="Layer_1" xmlns="http://www.w3.org/2000/svg" xmlns:xlink="http://www.w3.org/1999/xlink" x="0px" y="0px"
	 viewBox="0 0 170 176.6" style="enable-background:new 0 0 170 176.6;" xml:space="preserve">
<style type="text/css">
	.B1ouX{fill:#B3B3B3;}
	.uH2rPY{fill:#A6120D;}
	.jGj4eS{fill:#DD1B16;}
	.v73sXh{fill:#F2F2F2;}
</style>
<g>
	<polygon class="B1ouX" points="83.2,0.9 0.6,30 13.6,138.3 83.3,176.6 153.4,137.8 166.5,29.5 	"/>
	<polygon class="uH2rPY" points="158.2,35.7 83.1,10.1 83.1,167.5 146,132.6 	"/>
	<polygon class="jGj4eS" points="9.8,36.2 21,133.1 83,167.5 83,10.1 	"/>
	<path class="v73sXh" d="M103.7,93.9L83,103.5H61.2L51,129.2l-19.1,0.4L83.1,15.8L103.7,93.9z M101.7,89L83.2,52.3L68,88.4H83L101.7,89
		z"/>
	<polygon class="B1ouX" points="83,15.8 83.2,52.3 100.5,88.4 83.1,88.4 83,103.5 107.1,103.5 118.3,129.5 136.5,129.9 	"/>
</g>
</svg>
