<?xml version="1.0" encoding="utf-8"?>
<!-- Generator: Adobe Illustrator 19.2.0, SVG Export Plug-In . SVG Version: 6.00 Build 0)  -->
<svg version="1.1" id="Layer_1" xmlns:sketch="http://www.bohemiancoding.com/sketch/ns"
	 xmlns="http://www.w3.org/2000/svg" xmlns:xlink="http://www.w3.org/1999/xlink" x="0px" y="0px" viewBox="0 0 297.5 340"
	 style="enable-background:new 0 0 297.5 340;" xml:space="preserve">
<style type="text/css">
	.Gu8XmI{fill:#1572B6;}
	.s3wN4I{fill:#33A9DC;}
	.l7pWYp{fill:#FFFFFF;}
	.sBebbD{fill:#EBEBEB;}
</style>
<path id="Shape" class="Gu8XmI" d="M27.1,306.3L0.1,2.7h297.4l-27.1,303.6L148.6,340L27.1,306.3z"/>
<path id="Shape_1_" class="s3wN4I" d="M148.8,314.2l98.4-27.3l23.2-259.4H148.8V314.2z"/>
<g id="Group" transform="translate(55.000000, 142.000000)">
	<path id="Shape_2_" class="l7pWYp" d="M93.8-4.5h49.3l3.4-38.1H93.8v-37.2h0.1h93.2l-0.9,10l-9.2,102.6H93.8V-4.5z"/>
	<path id="Shape_3_" class="sBebbD" d="M94,92.2l-0.2,0L52.4,81.1l-2.7-29.7H29.6H12.4l5.2,58.5L93.8,131l0.2,0V92.2z"/>
	<path id="Shape_4_" class="l7pWYp" d="M139.9,31.2L135.4,81L93.9,92.2V131l76.3-21.2l0.6-6.3l6.5-72.4H139.9z"/>
	<path id="Shape_5_" class="sBebbD" d="M93.9-79.9v23.1v14v0.1H4.1H4L3.2-51L1.5-69.9l-0.9-10H93.9z"/>
	<path id="Shape_6_" class="sBebbD" d="M93.8-4.5v23.1v14v0.1H53h-0.1l-0.7-8.4L50.4,5.5l-0.9-10H93.8z"/>
</g>
</svg>
