<?xml version="1.0" encoding="utf-8"?>
<!-- Generator: Adobe Illustrator 19.2.0, SVG Export Plug-In . SVG Version: 6.00 Build 0)  -->
<svg version="1.1" id="Layer_1" xmlns="http://www.w3.org/2000/svg" xmlns:xlink="http://www.w3.org/1999/xlink" x="0px" y="0px"
	 viewBox="0 0 89.4 91" style="enable-background:new 0 0 89.4 91;" xml:space="preserve">
<style type="text/css">
	.git{fill:#F05133;}
</style>
<path class="git" d="M89.4,41.6L49.6,1.8c-2.3-2.3-6-2.3-8.3,0l-8.3,8.3l10.5,10.5c2.4-0.8,5.2-0.3,7.2,1.7c2,2,2.5,4.8,1.7,7.2
	l10.1,10.1c2.4-0.8,5.3-0.3,7.2,1.7c2.7,2.7,2.7,7.1,0,9.9s-7.1,2.7-9.9,0c-2.1-2.1-2.6-5.1-1.5-7.6L48.9,34l0,24.8
	c0.7,0.3,1.3,0.8,1.8,1.3c2.7,2.7,2.7,7.1,0,9.9c-2.7,2.7-7.2,2.7-9.9,0c-2.7-2.7-2.7-7.2,0-9.9c0.7-0.7,1.5-1.2,2.3-1.5v-25
	c-0.8-0.3-1.6-0.8-2.3-1.5c-2.1-2.1-2.6-5.1-1.5-7.6L29,14.1L1.7,41.4c-2.3,2.3-2.3,6,0,8.3l39.8,39.8c2.3,2.3,6,2.3,8.3,0
	l39.6-39.6C91.7,47.6,91.7,43.9,89.4,41.6z"/>
</svg>
