<?xml version="1.0" encoding="utf-8"?>
<!-- Generator: Adobe Illustrator 19.2.0, SVG Export Plug-In . SVG Version: 6.00 Build 0)  -->
<svg version="1.1" id="Layer_1" xmlns="http://www.w3.org/2000/svg" xmlns:xlink="http://www.w3.org/1999/xlink" x="0px" y="0px"
	 viewBox="0 0 372 411.4" style="enable-background:new 0 0 372 411.4;" xml:space="preserve">
<style type="text/css">
	.O9v2qu{fill:#E44D26;}
	.s3LTmo{fill:#F16529;}
	.R1RTvD{fill:#EBEBEB;}
	.w04rDA{fill:#FFFFFF;}
</style>
<title>HTML5 Logo</title>
<polygon class="O9v2qu" points="37.6,370.3 4.6,0 367.4,0 334.3,370.2 185.8,411.4 "/>
<polygon class="s3LTmo" points="186,379.9 306,346.6 334.3,30.3 186,30.3 "/>
<polygon class="R1RTvD" points="186,167.6 125.9,167.6 121.8,121.1 186,121.1 186,75.7 185.8,75.7 72.1,75.7 73.2,87.9 84.4,213 
	186,213 "/>
<polygon class="R1RTvD" points="186,285.5 185.8,285.6 135.2,271.9 132,235.7 107.4,235.7 86.4,235.7 92.8,307 185.8,332.8 186,332.8 
	"/>
<polygon class="w04rDA" points="185.8,167.6 185.8,213 241.8,213 236.5,271.9 185.8,285.6 185.8,332.8 278.9,307 279.6,299.3 
	290.3,179.8 291.4,167.6 279.2,167.6 "/>
<polygon class="w04rDA" points="185.8,75.7 185.8,103.9 185.8,121 185.8,121.1 295.4,121.1 295.4,121.1 295.5,121.1 296.4,110.9 
	298.5,87.9 299.6,75.7 "/>
</svg>
