<?xml version="1.0" encoding="utf-8"?>
<!-- Generator: Adobe Illustrator 19.2.0, SVG Export Plug-In . SVG Version: 6.00 Build 0)  -->
<svg version="1.1"
	 id="svg3058" inkscape:version="0.48.5 r10040" sodipodi:docname="php-logo.pdf" xmlns:cc="http://creativecommons.org/ns#" xmlns:dc="http://purl.org/dc/elements/1.1/" xmlns:inkscape="http://www.inkscape.org/namespaces/inkscape" xmlns:rdf="http://www.w3.org/1999/02/22-rdf-syntax-ns#" xmlns:sodipodi="http://sodipodi.sourceforge.net/DTD/sodipodi-0.dtd" xmlns:svg="http://www.w3.org/2000/svg"
	 xmlns="http://www.w3.org/2000/svg" xmlns:xlink="http://www.w3.org/1999/xlink" x="0px" y="0px" viewBox="0 0 300 159"
	 style="enable-background:new 0 0 300 159;" xml:space="preserve">
<style type="text/css">
	.V5cvVn{fill:#617CBE;}
	.G0k70Q{fill:#08090D;}
</style>
<g id="g3112">
	<path id="path3118" inkscape:connector-curvature="0" class="V5cvVn" d="M150,153.1c79.6,0,144.1-32.7,144.1-73S229.6,7,150,7
		S5.9,39.8,5.9,80.1S70.4,153.1,150,153.1"/>
	<path id="path3124" inkscape:connector-curvature="0" class="G0k70Q" d="M87.6,57.7c6.5,0,10.9,1.2,13.1,3.6c2.2,2.4,2.7,6.6,1.6,12.4
		c-1.2,6.1-3.5,10.5-6.9,13.1c-3.4,2.6-8.6,3.9-15.5,3.9H69.4l6.4-33.1L87.6,57.7L87.6,57.7z M45.7,124.3h17.2l4.1-21h14.8
		c6.5,0,11.9-0.7,16.1-2.1c4.2-1.4,8-3.7,11.5-6.9c2.9-2.7,5.2-5.6,7-8.8c1.8-3.2,3.1-6.7,3.8-10.6c1.8-9.4,0.4-16.7-4.1-21.9
		c-4.6-5.2-11.8-7.8-21.8-7.8H61L45.7,124.3"/>
	<path id="path3126" inkscape:connector-curvature="0" class="G0k70Q" d="M132.7,24.2h17.1l-4.1,21H161c9.6,0,16.2,1.7,19.8,5
		c3.6,3.3,4.7,8.8,3.3,16.2l-7.2,36.8h-17.4l6.8-35c0.8-4,0.5-6.7-0.9-8.1c-1.3-1.4-4.2-2.2-8.6-2.2h-13.7l-8.8,45.3h-17.1
		L132.7,24.2"/>
	<path id="path3128" inkscape:connector-curvature="0" class="G0k70Q" d="M222.1,57.7c6.5,0,10.9,1.2,13.1,3.6
		c2.2,2.4,2.7,6.6,1.6,12.4c-1.2,6.1-3.5,10.5-6.9,13.1c-3.4,2.6-8.6,3.9-15.5,3.9h-10.5l6.4-33.1L222.1,57.7L222.1,57.7z
		 M180.1,124.3h17.2l4.1-21h14.8c6.5,0,11.9-0.7,16.1-2.1c4.2-1.4,8-3.7,11.5-6.9c2.9-2.7,5.2-5.6,7-8.8c1.8-3.2,3.1-6.7,3.8-10.6
		c1.8-9.4,0.4-16.7-4.1-21.9c-4.6-5.2-11.8-7.8-21.8-7.8h-33.1L180.1,124.3"/>
</g>
</svg>
