<svg xmlns="http://www.w3.org/2000/svg"><symbol viewBox="0 0 170 176.6" id="angularjs-logo"><title>angularjs-logo</title> <style type="text/css"> .B1ouX{fill:#B3B3B3;} .uH2rPY{fill:#A6120D;} .jGj4eS{fill:#DD1B16;} .v73sXh{fill:#F2F2F2;} </style> <g> <polygon class="B1ouX" points="83.2,0.9 0.6,30 13.6,138.3 83.3,176.6 153.4,137.8 166.5,29.5 	"/> <polygon class="uH2rPY" points="158.2,35.7 83.1,10.1 83.1,167.5 146,132.6 	"/> <polygon class="jGj4eS" points="9.8,36.2 21,133.1 83,167.5 83,10.1 	"/> <path class="v73sXh" d="M103.7,93.9L83,103.5H61.2L51,129.2l-19.1,0.4L83.1,15.8L103.7,93.9z M101.7,89L83.2,52.3L68,88.4H83L101.7,89
		z"/> <polygon class="B1ouX" points="83,15.8 83.2,52.3 100.5,88.4 83.1,88.4 83,103.5 107.1,103.5 118.3,129.5 136.5,129.9 	"/> </g> </symbol><symbol viewBox="0 0 53.9 44" id="aws"><title>aws</title> <style type="text/css"> .qAa7oT{fill:#F7A80D;} </style> <path id="aws-polygon287" class="qAa7oT" d="M16.4,27.6l-4.7,2l4.3,1.8l5-1.8L16.4,27.6z M9.4,30.1l-0.2,9l6.8,3v-9.3L9.4,30.1z M23.4,30.1
	l-6.2,2.3v8.8l6.2-2.5V30.1z"/> <path id="aws-polygon311" class="qAa7oT" d="M30.8,2.1l-4.7,2l4.3,1.8l5-1.8L30.8,2.1z M24.2,4.7v9l5.8,1.7l0.2-8.2L24.2,4.7z M37.2,5.2
	l-5.5,2.3v8.8l5.5-2.5V5.2z"/> <path id="aws-use3387" class="qAa7oT" d="M8.7,14.7l-4.7,2l4.3,1.8l5-1.8L8.7,14.7z M1.7,17.2l-0.2,9l6.8,3v-9.3L1.7,17.2z M15.7,17.2
	l-6.2,2.3v8.8l6.2-2.5V17.2z"/> <path id="aws-use3389" class="qAa7oT" d="M23.7,14.4l-4.7,2l4.3,1.8l5-1.8L23.7,14.4z M16.7,16.9l-0.2,9l6.8,3v-9.3L16.7,16.9z M30.7,16.9
	l-6.2,2.3v8.8l6.2-2.5V16.9z"/> <path id="aws-use3391" class="qAa7oT" d="M45.4,2.1l-4.7,2l4.3,1.8l5-1.8L45.4,2.1z M38.4,4.6l-0.2,9l6.8,3V7.2L38.4,4.6z M52.4,4.6
	l-6.2,2.3v8.8l6.2-2.5V4.6z"/> </symbol><symbol viewBox="0 0 20 20" id="code"><title>code</title> <path d="M5.719,14.75c-0.236,0-0.474-0.083-0.664-0.252L-0.005,10l5.341-4.748C5.748,4.887,6.38,4.922,6.747,5.335
	c0.367,0.413,0.33,1.045-0.083,1.412L3.005,10l3.378,3.002c0.413,0.367,0.45,0.999,0.083,1.412
	C6.269,14.637,5.994,14.75,5.719,14.75z M14.664,14.748L20.005,10l-5.06-4.498c-0.413-0.367-1.045-0.33-1.411,0.083
	c-0.367,0.413-0.33,1.045,0.083,1.412L16.995,10l-3.659,3.252c-0.413,0.367-0.45,0.999-0.083,1.412C13.45,14.887,13.725,15,14,15
	C14.236,15,14.474,14.917,14.664,14.748z M9.986,16.165l2-12c0.091-0.545-0.277-1.06-0.822-1.151
	c-0.547-0.092-1.061,0.277-1.15,0.822l-2,12c-0.091,0.545,0.277,1.06,0.822,1.151C8.892,16.996,8.946,17,9.001,17
	C9.481,17,9.905,16.653,9.986,16.165z"/> </symbol><symbol viewBox="0 0 297.5 340" id="css3"><title>css3</title> <style type="text/css"> .Gu8XmI{fill:#1572B6;} .s3wN4I{fill:#33A9DC;} .l7pWYp{fill:#FFFFFF;} .sBebbD{fill:#EBEBEB;} </style> <path id="css3-Shape" class="Gu8XmI" d="M27.1,306.3L0.1,2.7h297.4l-27.1,303.6L148.6,340L27.1,306.3z"/> <path id="css3-Shape_1_" class="s3wN4I" d="M148.8,314.2l98.4-27.3l23.2-259.4H148.8V314.2z"/> <g id="css3-Group" transform="translate(55.000000, 142.000000)"> <path id="css3-Shape_2_" class="l7pWYp" d="M93.8-4.5h49.3l3.4-38.1H93.8v-37.2h0.1h93.2l-0.9,10l-9.2,102.6H93.8V-4.5z"/> <path id="css3-Shape_3_" class="sBebbD" d="M94,92.2l-0.2,0L52.4,81.1l-2.7-29.7H29.6H12.4l5.2,58.5L93.8,131l0.2,0V92.2z"/> <path id="css3-Shape_4_" class="l7pWYp" d="M139.9,31.2L135.4,81L93.9,92.2V131l76.3-21.2l0.6-6.3l6.5-72.4H139.9z"/> <path id="css3-Shape_5_" class="sBebbD" d="M93.9-79.9v23.1v14v0.1H4.1H4L3.2-51L1.5-69.9l-0.9-10H93.9z"/> <path id="css3-Shape_6_" class="sBebbD" d="M93.8-4.5v23.1v14v0.1H53h-0.1l-0.7-8.4L50.4,5.5l-0.9-10H93.8z"/> </g> </symbol><symbol viewBox="0 0 89.4 91" id="git-logo"><title>git-logo</title> <style type="text/css"> .git{fill:#F05133;} </style> <path class="git" d="M89.4,41.6L49.6,1.8c-2.3-2.3-6-2.3-8.3,0l-8.3,8.3l10.5,10.5c2.4-0.8,5.2-0.3,7.2,1.7c2,2,2.5,4.8,1.7,7.2
	l10.1,10.1c2.4-0.8,5.3-0.3,7.2,1.7c2.7,2.7,2.7,7.1,0,9.9s-7.1,2.7-9.9,0c-2.1-2.1-2.6-5.1-1.5-7.6L48.9,34l0,24.8
	c0.7,0.3,1.3,0.8,1.8,1.3c2.7,2.7,2.7,7.1,0,9.9c-2.7,2.7-7.2,2.7-9.9,0c-2.7-2.7-2.7-7.2,0-9.9c0.7-0.7,1.5-1.2,2.3-1.5v-25
	c-0.8-0.3-1.6-0.8-2.3-1.5c-2.1-2.1-2.6-5.1-1.5-7.6L29,14.1L1.7,41.4c-2.3,2.3-2.3,6,0,8.3l39.8,39.8c2.3,2.3,6,2.3,8.3,0
	l39.6-39.6C91.7,47.6,91.7,43.9,89.4,41.6z"/> </symbol><symbol viewBox="0 0 372 411.4" id="html5-logo"><title>HTML5 Logo</title> <style type="text/css"> .O9v2qu{fill:#E44D26;} .s3LTmo{fill:#F16529;} .R1RTvD{fill:#EBEBEB;} .w04rDA{fill:#FFFFFF;} </style>  <polygon class="O9v2qu" points="37.6,370.3 4.6,0 367.4,0 334.3,370.2 185.8,411.4 "/> <polygon class="s3LTmo" points="186,379.9 306,346.6 334.3,30.3 186,30.3 "/> <polygon class="R1RTvD" points="186,167.6 125.9,167.6 121.8,121.1 186,121.1 186,75.7 185.8,75.7 72.1,75.7 73.2,87.9 84.4,213 
	186,213 "/> <polygon class="R1RTvD" points="186,285.5 185.8,285.6 135.2,271.9 132,235.7 107.4,235.7 86.4,235.7 92.8,307 185.8,332.8 186,332.8 
	"/> <polygon class="w04rDA" points="185.8,167.6 185.8,213 241.8,213 236.5,271.9 185.8,285.6 185.8,332.8 278.9,307 279.6,299.3 
	290.3,179.8 291.4,167.6 279.2,167.6 "/> <polygon class="w04rDA" points="185.8,75.7 185.8,103.9 185.8,121 185.8,121.1 295.4,121.1 295.4,121.1 295.5,121.1 296.4,110.9 
	298.5,87.9 299.6,75.7 "/> </symbol><symbol viewBox="0 0 20 20" id="info"><title>info</title> <path d="M10,0.4c-5.303,0-9.601,4.298-9.601,9.6c0,5.303,4.298,9.601,9.601,9.601c5.301,0,9.6-4.298,9.6-9.601
	C19.6,4.698,15.301,0.4,10,0.4z M10.896,3.866c0.936,0,1.211,0.543,1.211,1.164c0,0.775-0.62,1.492-1.679,1.492
	c-0.886,0-1.308-0.445-1.282-1.182C9.146,4.719,9.665,3.866,10.896,3.866z M8.498,15.75c-0.64,0-1.107-0.389-0.66-2.094l0.733-3.025
	c0.127-0.484,0.148-0.678,0-0.678c-0.191,0-1.022,0.334-1.512,0.664L6.74,10.094c1.555-1.299,3.343-2.061,4.108-2.061
	c0.64,0,0.746,0.756,0.427,1.92l-0.84,3.18c-0.149,0.562-0.085,0.756,0.064,0.756c0.192,0,0.82-0.232,1.438-0.719l0.362,0.486
	C10.786,15.168,9.137,15.75,8.498,15.75z"/> </symbol><symbol viewBox="0 0 326.4 370.5" id="js-logo"><title>HTML5 Logo Badge</title> <style type="text/css"> .asdf{fill:#D6BA32;} .sdfg{fill:#FFDA3E;} .dfgh{fill:#EBEBEB;} </style>  <g> <path class="asdf" d="M29.7,332.9L0,0h326.4l-29.7,332.9l-133.9,37.6"/> <path class="sdfg" d="M163.6,344.1l107.8-29.7l25.3-285.1H163.6V344.1z"/> <path d="M292.1,85.1"/> <polygon class="dfgh" points="118.4,71.8 118.4,242.7 55.2,225.1 55.2,263.2 150,289.6 150,71.8 	"/> <polygon class="dfgh" points="276.9,109.9 280.2,71.8 176.4,71.8 176.4,213.3 241.2,201.7 239.6,234.6 176.4,251.4 176.4,289.5 
		264.5,266.4 272.8,160.4 208,168.4 208,109.9 	"/> </g> </symbol><symbol viewBox="0 0 20 20" id="layers"><title>layers</title> <path d="M9.248,11.601c0.45,0.313,1.05,0.313,1.5,0l9.088-5.281c0.236-0.164,0.21-0.518-0.048-0.646l-9.205-3.537
	c-0.368-0.183-0.802-0.183-1.17,0L0.208,5.674C-0.05,5.801-0.076,6.156,0.16,6.32L9.248,11.601z M19.788,10.811l-2.486-1.233
	l-5.725,3.327c-0.469,0.309-1.014,0.471-1.579,0.471s-1.11-0.163-1.579-0.471L2.698,9.576l-2.49,1.234
	c-0.258,0.128-0.284,0.482-0.048,0.646l9.088,6.309c0.45,0.313,1.05,0.313,1.5,0l9.088-6.309
	C20.072,11.293,20.046,10.939,19.788,10.811z"/> </symbol><symbol viewBox="0 0 20 20" id="mic"><title>mic</title> <path d="M16.399,7.643V10.4c0,2.236-1.643,4.629-5.399,4.959V18h2.6c0.22,0,0.4,0.18,0.4,0.4V19.6c0,0.221-0.181,0.4-0.4,0.4h-7.2
	C6.18,20,6,19.82,6,19.6V18.4C6,18.18,6.18,18,6.399,18H9v-2.641c-3.758-0.33-5.4-2.723-5.4-4.959V7.643c0-0.221,0.18-0.4,0.4-0.4
	h0.6c0.22,0,0.4,0.18,0.4,0.4V10.4c0,1.336,1.053,3.6,5,3.6c3.946,0,5-2.264,5-3.6V7.643c0-0.221,0.18-0.4,0.399-0.4H16
	C16.22,7.242,16.399,7.422,16.399,7.643z M10,12c2.346,0,3-0.965,3-1.6V7.242H7V10.4C7,11.035,7.652,12,10,12z M13,1.6
	C13,0.963,12.346,0,10,0C7.652,0,7,0.963,7,1.6v4.242h6V1.6z"/> </symbol><symbol viewBox="0 0 256 282" id="nodejs-icon"><title>nodejs-icon</title><g fill="#8CC84B"><path d="M116.504151,3.58037736 C123.46566,-0.404528302 132.53434,-0.422641509 139.489811,3.58037736 C174.484528,23.3539623 209.491321,43.0973585 244.48,62.8830189 C251.061132,66.5901887 255.462642,73.9139623 255.396226,81.4973585 L255.396226,200.464906 C255.444528,208.362264 250.608302,215.861132 243.664906,219.483774 C208.784906,239.148679 173.923019,258.837736 139.049057,278.502642 C131.942642,282.566038 122.69283,282.252075 115.809811,277.856604 C105.352453,271.794717 94.8769811,265.763019 84.4196226,259.70717 C82.2822642,258.433208 79.8732075,257.418868 78.3637736,255.347925 C79.6981132,253.548679 82.0830189,253.325283 84.0211321,252.540377 C88.3864151,251.151698 92.3954717,248.923774 96.4045283,246.762264 C97.4188679,246.067925 98.6566038,246.333585 99.6286792,246.955472 C108.570566,252.081509 117.433962,257.358491 126.406038,262.436226 C128.32,263.541132 130.258113,262.073962 131.89434,261.162264 C166.122264,241.817358 200.392453,222.544906 234.61434,203.193962 C235.882264,202.584151 236.582642,201.237736 236.48,199.849057 C236.504151,160.603774 236.486038,121.352453 236.492075,82.1071698 C236.636981,80.5313208 235.725283,79.0822642 234.300377,78.4362264 C199.541132,58.8618868 164.8,39.2573585 130.046792,19.6769811 C128.803019,18.8316981 127.196981,18.8256604 125.953208,19.6709434 C91.2,39.2573585 56.4649057,58.88 21.7116981,78.4543396 C20.2928302,79.1003774 19.3388679,80.525283 19.5079245,82.1071698 C19.5139623,121.352453 19.5079245,160.603774 19.5079245,199.855094 C19.3871698,201.243774 20.1358491,202.56 21.3977358,203.157736 C30.6716981,208.416604 39.9577358,213.639245 49.2377358,218.88 C54.4664151,221.693585 60.8845283,223.366038 66.6445283,221.210566 C71.7283019,219.38717 75.290566,214.200755 75.1939623,208.803019 C75.2422642,169.78717 75.1698113,130.765283 75.2301887,91.7554717 C75.1033962,90.0226415 76.7456604,88.5916981 78.4301887,88.754717 C82.8860377,88.7245283 87.3479245,88.6943396 91.8037736,88.7667925 C93.6633962,88.7245283 94.9433962,90.5901887 94.7139623,92.3350943 C94.6958491,131.598491 94.7622642,170.861887 94.6837736,210.125283 C94.6958491,220.588679 90.3969811,231.975849 80.7184906,237.095849 C68.7939623,243.272453 54.0558491,241.962264 42.2762264,236.039245 C32.0784906,230.949434 22.3456604,224.941887 12.3290566,219.489811 C5.36754717,215.885283 0.555471698,208.356226 0.603773585,200.464906 L0.603773585,81.4973585 C0.531320755,73.7569811 5.10792453,66.3003774 11.8943396,62.6475472 C46.7683019,42.9645283 81.6362264,23.269434 116.504151,3.58037736 L116.504151,3.58037736 Z"/><path d="M146.928302,85.989434 C162.137358,85.0113208 178.421132,85.4098113 192.108679,92.9026415 C202.704906,98.6445283 208.579623,110.695849 208.766792,122.469434 C208.470943,124.057358 206.810566,124.93283 205.295094,124.824151 C200.881509,124.818113 196.467925,124.884528 192.05434,124.793962 C190.182642,124.866415 189.095849,123.139623 188.860377,121.485283 C187.592453,115.852075 184.519245,110.273208 179.218113,107.556226 C171.079245,103.480755 161.642264,103.686038 152.766792,103.770566 C146.288302,104.114717 139.320755,104.676226 133.832453,108.486038 C129.618113,111.372075 128.338113,117.198491 129.841509,121.889811 C131.260377,125.258868 135.148679,126.34566 138.330566,127.347925 C156.661132,132.141887 176.084528,131.664906 194.064906,137.97434 C201.509434,140.546415 208.790943,145.54566 211.338868,153.340377 C214.671698,163.78566 213.210566,176.271698 205.778113,184.658113 C199.752453,191.559245 190.973585,195.314717 182.218868,197.355472 C170.572075,199.951698 158.484528,200.018113 146.656604,198.864906 C135.535094,197.596981 123.960755,194.674717 115.375094,187.097358 C108.033208,180.721509 104.446792,170.789434 104.803019,161.201509 C104.887547,159.583396 106.499623,158.45434 108.051321,158.58717 C112.495094,158.550943 116.938868,158.538868 121.382642,158.593208 C123.157736,158.466415 124.473962,160 124.564528,161.672453 C125.38566,167.04 127.402264,172.673208 132.081509,175.855094 C141.113962,181.681509 152.446792,181.283019 162.789434,181.446038 C171.356981,181.06566 180.975094,180.950943 187.966792,175.287547 C191.655849,172.057358 192.748679,166.653585 191.752453,162.004528 C190.671698,158.08 186.566038,156.250566 183.04,155.055094 C164.944906,149.331321 145.304151,151.408302 127.384151,144.935849 C120.108679,142.363774 113.074717,137.503396 110.279245,130.028679 C106.378868,119.450566 108.166038,106.366792 116.377358,98.2641509 C124.383396,90.2037736 135.939623,87.1003774 146.928302,85.989434 L146.928302,85.989434 Z"/></g></symbol><symbol viewBox="0 0 300 159" id="php-logo"><title>php-logo</title> <style type="text/css"> .V5cvVn{fill:#617CBE;} .G0k70Q{fill:#08090D;} </style> <g id="php-logo-g3112"> <path id="php-logo-path3118" inkscape:connector-curvature="0" class="V5cvVn" d="M150,153.1c79.6,0,144.1-32.7,144.1-73S229.6,7,150,7
		S5.9,39.8,5.9,80.1S70.4,153.1,150,153.1"/> <path id="php-logo-path3124" inkscape:connector-curvature="0" class="G0k70Q" d="M87.6,57.7c6.5,0,10.9,1.2,13.1,3.6c2.2,2.4,2.7,6.6,1.6,12.4
		c-1.2,6.1-3.5,10.5-6.9,13.1c-3.4,2.6-8.6,3.9-15.5,3.9H69.4l6.4-33.1L87.6,57.7L87.6,57.7z M45.7,124.3h17.2l4.1-21h14.8
		c6.5,0,11.9-0.7,16.1-2.1c4.2-1.4,8-3.7,11.5-6.9c2.9-2.7,5.2-5.6,7-8.8c1.8-3.2,3.1-6.7,3.8-10.6c1.8-9.4,0.4-16.7-4.1-21.9
		c-4.6-5.2-11.8-7.8-21.8-7.8H61L45.7,124.3"/> <path id="php-logo-path3126" inkscape:connector-curvature="0" class="G0k70Q" d="M132.7,24.2h17.1l-4.1,21H161c9.6,0,16.2,1.7,19.8,5
		c3.6,3.3,4.7,8.8,3.3,16.2l-7.2,36.8h-17.4l6.8-35c0.8-4,0.5-6.7-0.9-8.1c-1.3-1.4-4.2-2.2-8.6-2.2h-13.7l-8.8,45.3h-17.1
		L132.7,24.2"/> <path id="php-logo-path3128" inkscape:connector-curvature="0" class="G0k70Q" d="M222.1,57.7c6.5,0,10.9,1.2,13.1,3.6
		c2.2,2.4,2.7,6.6,1.6,12.4c-1.2,6.1-3.5,10.5-6.9,13.1c-3.4,2.6-8.6,3.9-15.5,3.9h-10.5l6.4-33.1L222.1,57.7L222.1,57.7z
		 M180.1,124.3h17.2l4.1-21h14.8c6.5,0,11.9-0.7,16.1-2.1c4.2-1.4,8-3.7,11.5-6.9c2.9-2.7,5.2-5.6,7-8.8c1.8-3.2,3.1-6.7,3.8-10.6
		c1.8-9.4,0.4-16.7-4.1-21.9c-4.6-5.2-11.8-7.8-21.8-7.8h-33.1L180.1,124.3"/> </g> </symbol><symbol viewBox="0 0 20 20" id="video-camera"><title>video-camera</title> <path d="M10.5,10c0,1.380249-1.119751,2.5-2.5,2.5c-1.3810425,0-2.5-1.119751-2.5-2.5S6.6189575,7.5,8,7.5
	C9.380249,7.5,10.5,8.619751,10.5,10z M16,4v12c0,1.0996094-0.9003906,2-2,2H2c-1.0996094,0-2-0.9003906-2-2V4
	c0-1.0996094,0.9003906-2,2-2h12C15.0996094,2,16,2.9003906,16,4z M12.5,10c0-2.4855347-2.0153809-4.5-4.5-4.5
	c-2.4855347,0-4.5,2.0144653-4.5,4.5s2.0144653,4.5,4.5,4.5C10.4846191,14.5,12.5,12.4855347,12.5,10z M19.2151489,5.0856323
	L17,6.5623779v7l2.2151489,1.4768066C19.5506592,15.2628174,20,15.0223389,20,14.6191406V5.5056763
	C20,5.102478,19.5506592,4.8619385,19.2151489,5.0856323z"/> </symbol></svg>